<?xml version="1.0" encoding="iso-8859-1"?>
<!-- Generator: Adobe Illustrator 19.1.0, SVG Export Plug-In . SVG Version: 6.00 Build 0)  -->
<svg version="1.1" id="Capa_1" xmlns="http://www.w3.org/2000/svg" xmlns:xlink="http://www.w3.org/1999/xlink" x="0px" y="0px"
	 viewBox="0 0 480.71 480.71" style="enable-background:new 0 0 480.71 480.71;" xml:space="preserve">
<g>
	<path d="M478.538,9.653C475.642,3.861,469.85,0,462.128,0H19.064C11.342,0,5.55,3.861,2.654,9.653s-0.965,12.549,3.861,18.34
		l161.202,174.716c1.931,1.931,2.896,6.757,2.896,8.688v196.917c0,9.653,6.757,20.271,15.445,25.097l96.528,45.368
		c2.896,0.965,5.792,1.931,8.688,1.931c2.896,0,6.757-0.965,9.653-2.896c4.826-2.896,7.722-8.688,7.722-15.444V211.396
		c0-1.931,1.931-6.757,2.896-8.688L472.746,27.993C479.503,22.201,480.468,15.444,478.538,9.653z M285.482,452.717l-87.841-41.507
		c-0.965,0-1.931-1.931-1.931-2.896V211.396c0-0.965,0-1.931,0-1.931h89.771c0,0.965,0,1.931,0,1.931V452.717z M297.065,184.369
		H185.092L37.404,24.132h407.348L297.065,184.369z"/>
	<g>
	</g>
	<g>
	</g>
	<g>
	</g>
	<g>
	</g>
	<g>
	</g>
	<g>
	</g>
	<g>
	</g>
	<g>
	</g>
	<g>
	</g>
	<g>
	</g>
	<g>
	</g>
	<g>
	</g>
	<g>
	</g>
	<g>
	</g>
	<g>
	</g>
</g>
<g>
</g>
<g>
</g>
<g>
</g>
<g>
</g>
<g>
</g>
<g>
</g>
<g>
</g>
<g>
</g>
<g>
</g>
<g>
</g>
<g>
</g>
<g>
</g>
<g>
</g>
<g>
</g>
<g>
</g>
</svg>
